<?xml version="1.0" standalone="no"?>
<!DOCTYPE svg PUBLIC "-//W3C//DTD SVG 20010904//EN"
 "http://www.w3.org/TR/2001/REC-SVG-20010904/DTD/svg10.dtd">
<svg version="1.0" xmlns="http://www.w3.org/2000/svg"
 width="2100.000000pt" height="200.000000pt" viewBox="0 0 2100.000000 200.000000"
 preserveAspectRatio="xMidYMid meet">

<g transform="translate(0.000000,200.000000) scale(0.100000,-0.100000)"
fill="current" stroke="none">
<path d="M11651 1958 c-10 -24 -206 -456 -435 -961 -320 -708 -416 -928 -416
-958 l0 -39 243 0 242 0 55 125 55 125 384 -3 384 -2 55 -123 55 -122 244 0
243 0 0 35 c0 26 -125 311 -437 1000 l-438 965 -108 0 -108 0 -18 -42z m240
-1025 l107 -248 -215 -3 c-119 -1 -218 -1 -220 1 -2 3 42 112 98 243 55 132
103 245 106 252 3 7 8 10 11 8 3 -3 53 -117 113 -253z"/>
<path d="M19476 1039 c-337 -743 -436 -969 -436 -1000 l0 -39 243 0 243 0 56
123 56 122 280 5 280 5 -86 212 -86 212 -112 3 -112 3 109 249 c60 137 110
250 112 253 2 2 114 -264 248 -592 l243 -595 243 0 243 0 0 37 c0 26 -117 293
-437 1000 l-436 963 -107 0 -108 0 -436 -961z"/>
<path d="M841 1928 c-15 -35 -211 -466 -435 -959 -297 -657 -406 -906 -406
-932 l0 -37 243 0 242 0 244 595 c134 328 245 594 246 593 8 -9 215 -498 215
-507 0 -7 -35 -11 -109 -11 l-109 0 -26 -62 c-14 -35 -53 -128 -85 -208 l-60
-145 278 -3 278 -2 56 -123 56 -122 241 -3 240 -2 0 42 c-1 35 -84 226 -433
993 l-432 950 -108 3 -108 3 -28 -63z"/>
<path d="M2490 990 l0 -990 250 0 250 0 0 436 c0 264 4 434 9 432 5 -2 98 -99
206 -215 167 -181 201 -213 225 -213 24 0 60 34 232 216 l203 216 3 -436 2
-436 255 0 255 0 0 990 0 990 -88 0 -88 0 -384 -425 c-211 -234 -387 -425
-391 -425 -3 0 -176 191 -383 425 l-377 425 -90 0 -89 0 0 -990z"/>
<path d="M16880 990 l0 -990 250 0 250 0 0 380 0 381 101 -3 102 -3 207 -375
208 -375 276 -3 276 -2 0 43 c0 39 -29 92 -306 548 -169 277 -307 509 -307
515 0 5 117 199 260 430 143 230 263 425 267 432 6 9 -54 12 -282 12 l-290 0
-233 -375 c-169 -273 -237 -375 -251 -375 -17 0 -18 18 -18 375 l0 375 -255 0
-255 0 0 -990z"/>
<path d="M5120 985 l0 -985 620 0 620 0 -2 223 -3 222 -372 3 -373 2 0 170 0
170 330 0 330 0 0 225 0 225 -327 2 -328 3 -3 138 -3 137 361 0 360 0 0 225 0
225 -605 0 -605 0 0 -985z"/>
<path d="M7040 985 l0 -986 448 4 c363 3 459 7 512 20 426 104 698 450 717
913 9 214 -28 385 -121 560 -93 174 -212 291 -381 375 -186 92 -193 93 -717
97 l-458 3 0 -986z m921 489 c121 -57 197 -147 244 -287 105 -313 -50 -653
-326 -716 -24 -6 -110 -11 -191 -11 l-148 0 0 526 0 526 178 -4 c174 -3 178
-3 243 -34z"/>
<path d="M9320 1750 l0 -220 115 0 115 0 0 -540 0 -540 -125 0 -125 0 0 -220
0 -220 495 0 495 0 0 220 0 220 -125 0 -125 0 0 540 0 540 115 0 115 0 0 220
0 220 -475 0 -475 0 0 -220z"/>
<path d="M12950 1745 l0 -225 240 0 240 0 0 -760 0 -760 245 0 245 0 0 760 0
760 235 0 235 0 0 225 0 225 -720 0 -720 0 0 -225z"/>
<path d="M15020 985 l0 -985 615 0 615 0 0 225 0 225 -370 0 -370 0 0 170 0
170 330 0 330 0 0 225 0 225 -330 0 -330 0 0 140 0 140 360 0 360 0 0 225 0
225 -605 0 -605 0 0 -985z"/>
</g>
</svg>
