<?xml version="1.0" encoding="UTF-8"?>
<svg version="1.1" xmlns="http://www.w3.org/2000/svg" width="253" height="46">
<path d="M0 0 C1.2065625 0.0309375 1.2065625 0.0309375 2.4375 0.0625 C2.99179688 1.06152344 3.54609375 2.06054688 4.1171875 3.08984375 C4.84867338 4.39338911 5.58045982 5.69676584 6.3125 7 C6.67730469 7.65935547 7.04210937 8.31871094 7.41796875 8.99804688 C9.29167898 12.64186369 9.29167898 12.64186369 12.4375 15.0625 C12.746875 13.8559375 12.746875 13.8559375 13.0625 12.625 C14.82130394 8.06809889 16.98140257 3.57320846 20.4375 0.0625 C23.13671875 -0.1953125 23.13671875 -0.1953125 25.4375 0.0625 C26.59280812 2.37311624 26.56651756 3.71153489 26.5703125 6.28125 C26.57321289 7.5501709 26.57321289 7.5501709 26.57617188 8.84472656 C26.57166016 9.7415918 26.56714844 10.63845703 26.5625 11.5625 C26.55959961 12.91939941 26.55959961 12.91939941 26.55664062 14.30371094 C26.5178791 20.28375288 26.22862108 26.12909188 25.4375 32.0625 C23.77138095 32.105221 22.10367115 32.10313832 20.4375 32.0625 C18.44133446 30.06633446 19.02766573 26.24548037 18.875 23.5 C18.83181641 22.78908203 18.78863281 22.07816406 18.74414062 21.34570312 C18.63778223 19.58488088 18.53711154 17.8237168 18.4375 16.0625 C17.98310547 16.92875 17.98310547 16.92875 17.51953125 17.8125 C16.26675439 20.03280607 15.0448264 22.08157882 13.4375 24.0625 C10.625 24.5625 10.625 24.5625 8.4375 24.0625 C7.1175 21.7525 5.7975 19.4425 4.4375 17.0625 C4.1075 17.0625 3.7775 17.0625 3.4375 17.0625 C3.1075 22.0125 2.7775 26.9625 2.4375 32.0625 C0.7875 32.0625 -0.8625 32.0625 -2.5625 32.0625 C-4.44569268 30.17930732 -3.69304285 26.94319863 -3.6953125 24.4375 C-3.69626923 23.77540527 -3.69722595 23.11331055 -3.69821167 22.43115234 C-3.69889326 21.02897039 -3.69704042 19.6267853 -3.69287109 18.22460938 C-3.68752246 16.07154287 -3.6928167 13.91868498 -3.69921875 11.765625 C-3.69855796 10.40624954 -3.69727679 9.0468742 -3.6953125 7.6875 C-3.69418457 6.44226563 -3.69305664 5.19703125 -3.69189453 3.9140625 C-3.51818099 0.08580929 -3.51818099 0.08580929 0 0 Z " fill="#DEDEDD" transform="translate(141.5625,4.9375)"/>
<path d="M0 0 C5.07505276 0.07583761 8.52048636 0.56355394 12.80395508 3.25317383 C15.47743652 7.26339599 15.51418313 10.53758989 14.80395508 15.25317383 C12.80395508 18.31567383 12.80395508 18.31567383 10.80395508 20.25317383 C11.17649414 20.86805664 11.5490332 21.48293945 11.93286133 22.11645508 C12.40594727 22.92469727 12.8790332 23.73293945 13.36645508 24.56567383 C13.84211914 25.36618164 14.3177832 26.16668945 14.80786133 26.99145508 C15.80395508 29.25317383 15.80395508 29.25317383 14.80395508 32.25317383 C12.11645508 32.75317383 12.11645508 32.75317383 8.80395508 32.25317383 C6.70596195 29.8140436 5.29989873 27.08787864 3.80395508 24.25317383 C2.16921992 21.12842756 2.16921992 21.12842756 -0.32104492 20.56567383 C-0.93979492 20.46254883 -1.55854492 20.35942383 -2.19604492 20.25317383 C-2.18444336 21.03563477 -2.1728418 21.8180957 -2.16088867 22.62426758 C-2.15186523 23.63618164 -2.1428418 24.6480957 -2.13354492 25.69067383 C-2.12194336 26.70000977 -2.1103418 27.7093457 -2.09838867 28.74926758 C-2.19604492 31.25317383 -2.19604492 31.25317383 -3.19604492 32.25317383 C-6.19604492 32.37817383 -6.19604492 32.37817383 -9.19604492 32.25317383 C-11.07923761 30.36998114 -10.32658777 27.13387246 -10.32885742 24.62817383 C-10.32981415 23.9660791 -10.33077087 23.30398437 -10.33175659 22.62182617 C-10.33243819 21.21964422 -10.33058534 19.81745912 -10.32641602 18.4152832 C-10.32106739 16.2622167 -10.32636162 14.10935881 -10.33276367 11.95629883 C-10.33210289 10.59692337 -10.33082172 9.23754803 -10.32885742 7.87817383 C-10.32772949 6.63293945 -10.32660156 5.38770508 -10.32543945 4.10473633 C-10.05563222 -1.84120428 -4.89622864 0.00750336 0 0 Z M-2.19604492 6.25317383 C-2.19604492 9.22317383 -2.19604492 12.19317383 -2.19604492 15.25317383 C2.25895508 14.75817383 2.25895508 14.75817383 6.80395508 14.25317383 C7.13395508 12.27317383 7.46395508 10.29317383 7.80395508 8.25317383 C4.40200638 6.15966693 1.75123096 6.0737522 -2.19604492 6.25317383 Z " fill="#DFDEDD" transform="translate(232.196044921875,4.746826171875)"/>
<path d="M0 0 C5.07505276 0.07583761 8.52048636 0.56355394 12.80395508 3.25317383 C15.25589287 6.93108051 15.51907306 9.97909658 14.80395508 14.25317383 C12.80395508 17.25317383 12.80395508 17.25317383 10.80395508 19.25317383 C12.39358167 23.2883798 14.08627826 27.27128665 15.80395508 31.25317383 C14.80395508 32.25317383 14.80395508 32.25317383 12.05395508 32.81567383 C8.80395508 32.25317383 8.80395508 32.25317383 7.36645508 30.57348633 C6.09261121 28.50349005 4.93807766 26.40225393 3.80395508 24.25317383 C3.14395508 23.26317383 2.48395508 22.27317383 1.80395508 21.25317383 C0.48395508 21.25317383 -0.83604492 21.25317383 -2.19604492 21.25317383 C-2.52604492 24.88317383 -2.85604492 28.51317383 -3.19604492 32.25317383 C-5.17604492 32.25317383 -7.15604492 32.25317383 -9.19604492 32.25317383 C-11.54126082 27.62762943 -11.46287117 23.49667862 -11.38354492 18.44067383 C-11.38290039 17.67174805 -11.38225586 16.90282227 -11.3815918 16.1105957 C-11.25936389 0.01725471 -11.25936389 0.01725471 0 0 Z M-3.19604492 6.25317383 C-3.21666992 7.55254883 -3.23729492 8.85192383 -3.25854492 10.19067383 C-3.27014648 10.92157227 -3.28174805 11.6524707 -3.29370117 12.40551758 C-3.40165676 14.27049524 -3.40165676 14.27049524 -2.19604492 15.25317383 C3.40009507 15.10216014 3.40009507 15.10216014 7.80395508 12.25317383 C7.70888118 10.20513102 7.70888118 10.20513102 6.80395508 8.25317383 C3.15977768 5.82372223 1.09154236 6.09137808 -3.19604492 6.25317383 Z " fill="#D5D5D5" transform="translate(85.196044921875,4.746826171875)"/>
<path d="M0 0 C9.36492976 4.52383683 18.37626074 9.15339711 27 15 C25.56090374 18.65207835 23.97194384 19.91037115 20.53515625 21.7265625 C19.65279297 22.2009375 18.77042969 22.6753125 17.86132812 23.1640625 C16.93771484 23.64617188 16.01410156 24.12828125 15.0625 24.625 C13.24039227 25.59542878 11.41875733 26.56674595 9.59765625 27.5390625 C8.38348022 28.17642334 8.38348022 28.17642334 7.14477539 28.82666016 C4.811834 30.06239307 4.811834 30.06239307 2 32 C-0.1875 31.625 -0.1875 31.625 -2 31 C-2.04939115 26.90661348 -2.08571501 22.81334202 -2.10986328 18.71972656 C-2.11992877 17.32679219 -2.13358234 15.93387898 -2.15087891 14.54101562 C-2.1751022 12.5404564 -2.18540814 10.53974385 -2.1953125 8.5390625 C-2.20578613 7.33459473 -2.21625977 6.13012695 -2.22705078 4.88916016 C-2 2 -2 2 0 0 Z " fill="#DDDDDD" transform="translate(8,5)"/>
<path d="M0 0 C1.19882813 0.00483398 1.19882813 0.00483398 2.421875 0.00976562 C3.246875 0.01814453 4.071875 0.02652344 4.921875 0.03515625 C5.76234375 0.03966797 6.6028125 0.04417969 7.46875 0.04882812 C9.53648901 0.06057664 11.60419124 0.07851103 13.671875 0.09765625 C14.001875 1.74765625 14.331875 3.39765625 14.671875 5.09765625 C11.32247619 7.12324506 8.80224949 7.31504612 4.921875 7.22265625 C3.93703125 7.20460938 2.9521875 7.1865625 1.9375 7.16796875 C0.81601563 7.13316406 0.81601563 7.13316406 -0.328125 7.09765625 C-0.658125 9.07765625 -0.988125 11.05765625 -1.328125 13.09765625 C3.291875 13.09765625 7.911875 13.09765625 12.671875 13.09765625 C13.671875 17.09765625 13.671875 17.09765625 12.671875 19.09765625 C9.73046875 19.51171875 9.73046875 19.51171875 6.109375 19.72265625 C4.91183594 19.79742188 3.71429688 19.8721875 2.48046875 19.94921875 C1.09021484 20.02269531 1.09021484 20.02269531 -0.328125 20.09765625 C-0.658125 22.07765625 -0.988125 24.05765625 -1.328125 26.09765625 C3.621875 26.09765625 8.571875 26.09765625 13.671875 26.09765625 C13.671875 28.07765625 13.671875 30.05765625 13.671875 32.09765625 C6.411875 32.09765625 -0.848125 32.09765625 -8.328125 32.09765625 C-8.328125 21.86765625 -8.328125 11.63765625 -8.328125 1.09765625 C-5.18121725 0.31092931 -3.1343629 -0.02238831 0 0 Z " fill="#D6D6D6" transform="translate(116.328125,4.90234375)"/>
<path d="M0 0 C1.33708008 -0.00193359 1.33708008 -0.00193359 2.70117188 -0.00390625 C3.63380859 -0.00003906 4.56644531 0.00382813 5.52734375 0.0078125 C6.46384766 0.00394531 7.40035156 0.00007812 8.36523438 -0.00390625 C9.70038086 -0.00197266 9.70038086 -0.00197266 11.0625 0 C11.88242432 0.00112793 12.70234863 0.00225586 13.54711914 0.00341797 C15.46484375 0.1328125 15.46484375 0.1328125 16.46484375 1.1328125 C16.46484375 2.7828125 16.46484375 4.4328125 16.46484375 6.1328125 C11.51484375 6.1328125 6.56484375 6.1328125 1.46484375 6.1328125 C1.13484375 8.4428125 0.80484375 10.7528125 0.46484375 13.1328125 C5.08484375 13.1328125 9.70484375 13.1328125 14.46484375 13.1328125 C14.79484375 14.7828125 15.12484375 16.4328125 15.46484375 18.1328125 C10.41482153 19.16871449 5.59067986 19.23532922 0.46484375 19.1328125 C0.46484375 21.4428125 0.46484375 23.7528125 0.46484375 26.1328125 C5.74484375 26.1328125 11.02484375 26.1328125 16.46484375 26.1328125 C16.46484375 27.7828125 16.46484375 29.4328125 16.46484375 31.1328125 C14.88071016 32.71694609 13.2550659 32.26260879 11.0625 32.265625 C10.17240234 32.26691406 9.28230469 32.26820312 8.36523438 32.26953125 C7.42873047 32.26566406 6.49222656 32.26179688 5.52734375 32.2578125 C4.59470703 32.26167969 3.66207031 32.26554687 2.70117188 32.26953125 C1.80978516 32.26824219 0.91839844 32.26695313 0 32.265625 C-0.82105225 32.26449707 -1.64210449 32.26336914 -2.48803711 32.26220703 C-4.53515625 32.1328125 -4.53515625 32.1328125 -6.53515625 31.1328125 C-6.53515625 21.2328125 -6.53515625 11.3328125 -6.53515625 1.1328125 C-4.15076916 -0.05938104 -2.65859623 0.00365228 0 0 Z " fill="#DFDEDD" transform="translate(198.53515625,4.8671875)"/>
<path d="M0 0 C3.27306071 1.42306988 4.44733165 1.97476084 5.875 5.25 C6.42220669 9.43497507 6.54852744 12.9670906 4.5625 16.75 C0.45108895 20.4045876 -5.93232325 19.8223678 -11.125 20.25 C-11.455 23.88 -11.785 27.51 -12.125 31.25 C-14.12454746 31.29254356 -16.12541636 31.29080783 -18.125 31.25 C-19.125 30.25 -19.125 30.25 -19.23852539 27.38256836 C-19.23328857 26.13096924 -19.22805176 24.87937012 -19.22265625 23.58984375 C-19.2212413 22.92537735 -19.21982635 22.26091095 -19.21836853 21.5763092 C-19.21275518 19.44666101 -19.20020054 17.31711661 -19.1875 15.1875 C-19.18248671 13.74674631 -19.17792351 12.30599097 -19.17382812 10.86523438 C-19.16278145 7.32678898 -19.14550792 3.78840461 -19.125 0.25 C-13.96603093 -2.32948454 -5.52843241 -1.34346852 0 0 Z M-12.125 5.25 C-12.145625 6.549375 -12.16625 7.84875 -12.1875 9.1875 C-12.19910156 9.91839844 -12.21070313 10.64929688 -12.22265625 11.40234375 C-12.33061184 13.26732141 -12.33061184 13.26732141 -11.125 14.25 C-6.39926675 14.68848347 -6.39926675 14.68848347 -2.125 13 C-0.93381736 11.28630594 -0.93381736 11.28630594 -1.25 9.1875 C-2.07752093 6.8988757 -2.07752093 6.8988757 -5.125 5.25 C-7.45699388 5.17094936 -9.79332622 5.16201231 -12.125 5.25 Z " fill="#D5D5D5" transform="translate(62.125,5.75)"/>
<path d="M0 0 C0.78375 0.04125 1.5675 0.0825 2.375 0.125 C3.80417743 2.98335486 3.50480809 5.43757719 3.5078125 8.62890625 C3.50910156 9.92634766 3.51039063 11.22378906 3.51171875 12.56054688 C3.50857666 13.57556274 3.50857666 13.57556274 3.50537109 14.61108398 C3.50001202 16.68285415 3.50532518 18.75440839 3.51171875 20.82617188 C3.51042969 22.12232422 3.50914062 23.41847656 3.5078125 24.75390625 C3.50668457 25.95088135 3.50555664 27.14785645 3.50439453 28.38110352 C3.375 31.125 3.375 31.125 2.375 32.125 C-0.625 32.25 -0.625 32.25 -3.625 32.125 C-5.96216009 29.78783991 -4.79662619 23.93667112 -4.81054688 20.82617188 C-4.81046631 20.1473999 -4.81038574 19.46862793 -4.81030273 18.76928711 C-4.81248734 16.69949736 -4.83063491 14.63024207 -4.84960938 12.56054688 C-4.85154297 11.26310547 -4.85347656 9.96566406 -4.85546875 8.62890625 C-4.85957764 7.43080322 -4.86368652 6.2327002 -4.86791992 4.99829102 C-4.54792532 1.21334984 -3.85631265 0.18363394 0 0 Z " fill="#CFCECC" transform="translate(180.625,4.875)"/>
</svg>
