<?xml version="1.0" standalone="no"?>
<!DOCTYPE svg PUBLIC "-//W3C//DTD SVG 20010904//EN"
 "http://www.w3.org/TR/2001/REC-SVG-20010904/DTD/svg10.dtd">
<svg version="1.0" xmlns="http://www.w3.org/2000/svg"
 width="2560.000000pt" height="1249.000000pt" viewBox="0 0 2560.000000 1249.000000"
 preserveAspectRatio="xMidYMid meet">

<g transform="translate(0.000000,1249.000000) scale(0.100000,-0.100000)"
fill="current" stroke="none">
<path d="M2070 12479 c-444 -32 -838 -146 -1138 -328 -557 -339 -867 -922
-922 -1736 -13 -193 -13 -1939 0 -2235 41 -939 220 -1433 687 -1892 220 -216
351 -309 1072 -758 555 -344 610 -382 738 -504 205 -195 299 -404 339 -749 13
-117 17 -298 21 -1027 6 -1077 2 -1139 -81 -1315 -84 -178 -232 -271 -446
-282 -287 -14 -488 131 -555 402 -32 130 -35 245 -35 1383 l0 1142 -875 0
-875 0 0 -1177 c0 -685 5 -1241 10 -1328 40 -585 200 -1035 491 -1382 254
-302 629 -514 1083 -613 210 -46 351 -62 617 -67 554 -12 972 66 1354 252 543
266 901 749 1034 1397 58 279 56 226 56 1588 0 954 -3 1285 -13 1380 -78 756
-294 1247 -738 1681 -219 213 -312 280 -992 718 -574 369 -616 398 -744 520
-190 181 -278 358 -327 651 -34 209 -41 411 -41 1250 0 871 2 916 54 1054 46
122 140 237 232 284 123 63 301 74 438 28 187 -63 296 -189 358 -411 l23 -80
3 -1197 3 -1198 875 0 875 0 -4 1298 c-3 1292 -3 1298 -25 1437 -47 289 -110
499 -213 714 -301 628 -862 992 -1673 1086 -164 19 -504 26 -666 14z"/>
<path d="M5210 11450 l0 -870 620 0 620 0 2 -5202 3 -5203 893 -3 892 -2 0
5205 0 5205 620 0 620 0 0 870 0 870 -2135 0 -2135 0 0 -870z"/>
<path d="M10590 12298 c0 -28 -988 -12008 -995 -12070 l-6 -48 885 0 885 0 5
32 c3 18 57 733 121 1588 63 855 118 1570 121 1588 l5 32 652 0 653 0 117
-1572 c65 -865 121 -1594 124 -1620 l6 -48 903 0 904 0 -6 43 c-2 23 -225
2726 -494 6007 -269 3281 -492 5993 -496 6028 l-6 62 -1689 0 -1689 0 0 -22z
m1781 -1630 c5 -12 425 -5595 422 -5600 -2 -5 -240 -8 -528 -8 -288 0 -526 3
-528 8 -3 5 418 5587 422 5600 1 1 48 2 106 2 58 0 105 -1 106 -2z"/>
<path d="M15890 6251 l0 -6071 895 0 895 0 0 2540 0 2540 545 0 545 0 3 -2207
c3 -2035 4 -2215 20 -2293 44 -220 120 -408 212 -522 l45 -58 895 0 895 0 -42
53 c-92 112 -170 301 -210 509 -21 113 -22 118 -28 1968 -4 1020 -10 1871 -14
1890 -4 19 -14 80 -22 135 -83 539 -341 905 -785 1114 -107 50 -309 119 -411
140 l-58 12 0 108 0 107 92 18 c134 25 312 87 436 150 446 228 719 650 812
1256 37 234 42 478 37 1660 -3 746 -8 1154 -16 1210 -50 385 -158 693 -332
956 -89 134 -289 338 -429 437 -115 81 -356 203 -500 252 -203 70 -428 117
-690 146 -72 8 -525 13 -1447 16 l-1343 5 0 -6071z m2519 4395 c206 -53 326
-180 386 -409 57 -221 65 -389 65 -1447 0 -1090 -9 -1239 -84 -1462 -42 -123
-86 -196 -159 -264 -138 -128 -321 -168 -737 -162 l-195 3 -3 1884 -2 1883
332 -5 c266 -4 346 -8 397 -21z"/>
<path d="M21220 11450 l0 -870 620 0 620 0 2 -5202 3 -5203 893 -3 892 -2 0
5205 0 5205 620 0 620 0 0 870 0 870 -2135 0 -2135 0 0 -870z"/>
</g>
</svg>
