<svg data-v-450cb357="" width="24" height="20" viewBox="0 0 24 20" fill="none" xmlns="http://www.w3.org/2000/svg"><path data-v-450cb357="" d="M23.765 6.23496C23.8395 6.30925 23.8986 6.3975 23.9389 6.49467C23.9792 6.59183 24 6.69599 24 6.80119C24 6.90638 23.9792 7.01054 23.9389 7.10771C23.8986 7.20487 23.8395 7.29312 23.765 7.36741L21.1306 10.0002L23.765 12.633C23.9152 12.7832 23.9996 12.9869 23.9996 13.1992C23.9996 13.4116 23.9152 13.6153 23.765 13.7655C23.6149 13.9156 23.4112 14 23.1988 14C22.9864 14 22.7828 13.9156 22.6326 13.7655L19.9998 11.1311L17.367 13.7655C17.2168 13.9156 17.0131 14 16.8008 14C16.5884 14 16.3847 13.9156 16.2345 13.7655C16.0844 13.6153 16 13.4116 16 13.1992C16 12.9869 16.0844 12.7832 16.2345 12.633L18.8689 10.0002L16.2345 7.36741C16.1602 7.29306 16.1012 7.20478 16.061 7.10763C16.0207 7.01047 16 6.90634 16 6.80119C16 6.69603 16.0207 6.5919 16.061 6.49475C16.1012 6.39759 16.1602 6.30932 16.2345 6.23496C16.3847 6.08479 16.5884 6.00042 16.8008 6.00042C16.9059 6.00042 17.0101 6.02113 17.1072 6.06137C17.2044 6.10162 17.2926 6.1606 17.367 6.23496L19.9998 8.86936L22.6326 6.23496C22.7069 6.16048 22.7951 6.10139 22.8923 6.06107C22.9895 6.02075 23.0936 6 23.1988 6C23.304 6 23.4082 6.02075 23.5053 6.06107C23.6025 6.10139 23.6908 6.16048 23.765 6.23496Z" fill="#fff"></path><path data-v-450cb357="" d="M12.5 20C12.1805 20 11.8694 19.8975 11.6125 19.7075C11.5982 19.6976 11.5845 19.6869 11.5712 19.6756L5.86 14.9998H1.5C1.10218 14.9998 0.720644 14.8417 0.43934 14.5604C0.158035 14.2791 0 13.8976 0 13.4997V6.49942C0 6.10158 0.158035 5.72003 0.43934 5.43872C0.720644 5.1574 1.10218 4.99936 1.5 4.99936H5.85938L11.57 0.323534C11.5832 0.312221 11.597 0.301582 11.6112 0.291658C11.8346 0.127347 12.0992 0.0281807 12.3755 0.00517246C12.6519 -0.0178357 12.9292 0.0362153 13.1767 0.161322C13.4242 0.286428 13.6321 0.477693 13.7775 0.71387C13.9228 0.950048 13.9998 1.22189 14 1.49921V18.4999C14 18.8978 13.842 19.2793 13.5607 19.5606C13.2794 19.842 12.8978 20 12.5 20Z" fill="#fff"></path></svg>