<svg data-v-450cb357="" width="23" height="20" viewBox="0 0 23 20" fill="none" xmlns="http://www.w3.org/2000/svg"><path data-v-450cb357="" d="M12.5 20C12.1805 20 11.8694 19.8975 11.6125 19.7075C11.5982 19.6976 11.5845 19.6869 11.5712 19.6756L5.86 14.9998H1.5C1.10218 14.9998 0.720644 14.8417 0.43934 14.5604C0.158035 14.2791 0 13.8976 0 13.4997V6.49942C0 6.10158 0.158035 5.72003 0.43934 5.43872C0.720644 5.1574 1.10218 4.99936 1.5 4.99936H5.85938L11.57 0.323534C11.5832 0.312221 11.597 0.301582 11.6112 0.291658C11.8346 0.127347 12.0992 0.0281807 12.3755 0.00517246C12.6519 -0.0178357 12.9292 0.0362153 13.1767 0.161322C13.4242 0.286428 13.6321 0.477693 13.7775 0.71387C13.9228 0.950047 13.9998 1.22189 14 1.49921V18.4999C14 18.8978 13.842 19.2793 13.5607 19.5606C13.2794 19.842 12.8978 20 12.5 20Z" fill="#fff"></path><path data-v-450cb357="" d="M16.9998 14.9999C16.8291 14.9998 16.6613 14.9561 16.5124 14.8729C16.3634 14.7897 16.2382 14.6697 16.1487 14.5244C16.0591 14.3792 16.0083 14.2134 16.0009 14.0429C15.9936 13.8724 16.03 13.7029 16.1067 13.5504C16.6998 12.371 17.0004 11.1753 17.0004 9.99965C17.0004 8.78834 16.7092 7.6283 16.1098 6.45387C15.9949 6.21829 15.9772 5.94704 16.0603 5.6985C16.1434 5.44995 16.3208 5.24396 16.5542 5.12486C16.7877 5.00576 17.0585 4.98306 17.3085 5.06165C17.5585 5.14024 17.7677 5.31383 17.891 5.54508C18.6367 7.00702 18.9998 8.46458 18.9998 9.99965C18.9998 11.491 18.6248 12.9879 17.8935 14.4492C17.8102 14.6148 17.6825 14.754 17.5247 14.8512C17.3669 14.9485 17.1852 14.9999 16.9998 14.9999Z" fill="#fff"></path><path data-v-450cb357="" d="M20.0002 18C19.8246 18 19.6522 17.9538 19.5001 17.866C19.3481 17.7782 19.2218 17.6519 19.134 17.4997C19.0462 17.3476 19 17.175 19 16.9993C19 16.8237 19.0462 16.6511 19.134 16.4989C20.3158 14.4406 21.0001 12.7156 21.0001 9.99433C21.0001 7.23175 20.317 5.51867 19.1365 3.49348C19.007 3.26447 18.9729 2.99363 19.0415 2.73961C19.1101 2.48559 19.2759 2.26884 19.503 2.13627C19.7301 2.00371 20.0003 1.96601 20.255 2.03133C20.5097 2.09664 20.7284 2.25973 20.8639 2.48527C22.1825 4.7475 23 6.79269 23 9.99433C23 13.1484 22.1838 15.2036 20.867 17.4996C20.7792 17.6519 20.6528 17.7783 20.5006 17.8661C20.3485 17.954 20.1758 18.0001 20.0002 18Z" fill="#fff"></path></svg>