<svg xmlns="http://www.w3.org/2000/svg" width="20" height="20" viewBox="0 0 20 20" fill="none">
<path d="M11.7295 18.0033C11.5537 18.3065 11.3014 18.5581 10.9978 18.733C10.6941 18.9079 10.3499 19 9.99953 19C9.64915 19 9.30492 18.9079 9.0013 18.733C8.69769 18.5581 8.44534 18.3065 8.26953 18.0033M16 7.00118C16 5.40957 15.3679 3.88315 14.2426 2.75771C13.1174 1.63227 11.5913 1 10 1C8.4087 1 6.88258 1.63227 5.75736 2.75771C4.63214 3.88315 4 5.40957 4 7.00118C4 14.0026 1 16.003 1 16.003H19C19 16.003 16 14.0026 16 7.00118Z" stroke="#A1A2A5" stroke-width="2" stroke-linecap="round" stroke-linejoin="round"/>
</svg>